<svg xmlns="http://www.w3.org/2000/svg" version="1.1" xmlns:xlink="http://www.w3.org/1999/xlink" xmlns:svgjs="http://svgjs.dev/svgjs" viewBox="0 0 800 800"><g fill="none" stroke-width="1.5" stroke="hsl(50, 98%, 50%)" stroke-linecap="round"><path d="M925.56 556.72C905.16 581.85 976.1 611.71 1105.76 645.53 1242.82 678.73 1329.39 714.59 1333.15 751.31 1254.12 785.18 1121.57 816.87 983.43 843.46 884.35 863.28 854.95 873.87 897.82 872.4 995.95 861.43 1110.89 837.13 1204.29 800.15 1250.47 759.24 1233.1 713.25 1159 669.1 1045.43 638.86 920.85 625.57 811.87 637.3 735.82 678.27 704.92 748.27 716.75 843.27 765.19 949.66 832.86 1056.16 902.93 1145.14 967.01 1199.42 1009.05 1209.69 1024.45 1171.79 1014.34 1097.09 979 1000.23 925.18 906.41 855.98 845.73 780.46 835.3 705.1 884.87 628.46 985.67 558.94 1114.39 498.15 1236.54 441.47 1316.12 393.61 1329.64 353.24 1270.92 316 1160.97 283.82 1033.78 255.06 933.85 227.24 899.76 201.07 944.11 175.94 1054.14 150.81 1191.06 127.32 1302.71 106.2 1350.37 86.01 1319.83 69.96 1221.34 59.8 1089.28 53.44 925.92 92.83 978.04 138.36 1137.19 170.18 1228.77 203.23 1272.61 231.17 1258.39 243.73 1190.07 239.01 1084.02 210.4 964.94 156.26 854.33 76.82 774.29 -23.2 734.87 -129.23 738.36 -231.4 777.5 -312.78 838.56 -357.55 911.75 -358.01 978.1 -311.63 1026.48 -232.33 1053.7 -135.72 1052.92 -48.32 1026.68 -0.39 978.26 -7.36 913.82 -75.97 840.88 -191.78 760.97 -327.2 683.21 -443.74 611.66 -505.03 543.71 -492 485.29 -407.09 436.09 -283.13 392.27 -162.58 355.88 -93.25 324.92 -106.71 297.07 -200.68 271.9 -342.72 247.75 -477.35 224.44 -550.83 200.53 -530.43 175.4 -424.68 150.27 -278.64 124.52 -152.58 98.89 -95.3 74.09 -126.36 51.02 -228.59 31.48 -418.08 9.96 -439.07 13.61 -254.35 44.9 -125.02 72.9 -39.42 108.19 -16.65 146.84 -58.15 178.52 -144.37 202.92 -245.44 212.61 -335.89 200.13 -387.06 163.52 -387.85 100.35 -338.98 16.02 -250.77 -84.82 -142.22 -190.95 -28.59 -284.95 69.44 -355.46 140.77 -388.64 181.41 -378.89 190.25 -326.84 174.04 -242.41 136.58 -149.49 90.45 -67.79 44.79 -21.87 -0.16 -30.05 -33.41 -94.36 -52.84 -204.34 -62.36 -332.64 -58.04 -447.54 -42.69 -515.95 -19.49 -517.87 10.25 -451.73 43.18 -337.15 79.52 -214.8 115.45 -123.68 148.86 -98.08 183.02 -150.69 213.1 -264.87 238.22 -401.78 263.35 -511.84 282.94 -553.67 297.72 -514.64 313.26 -409.75 325.56 -275.17 336.61 -155.51 351.08 -87.07 367.88 -88.57 390.27 -153.96 420.51 -261.92 460.82 -374.29 513.89 -456.67 576.87 -487.84 652.58 -456.94 738.8 -373.86 825.72 -257.62 911.91 -136.41 988.1 -35.53 1043.04 28.52 1071.61 46.24 1066.92 21.63 1031.55 -37.67 968.01 -112.8 887.31 -186.25 783.28 -266.07 805.7 -239.26 961.89 -144.95 1089.13 -62.07 1199.7 23.96 1263.61 106.14 1263.25 184.38 1198.13 251.14 1087.22 305.66 971.06 350.68 887.15 384.72 869.81 410.49 931.21 429.5 1054.05 444.35 1197.82 457.88 1309.74 468.55 1348.21 480.91 1295.89 496.66 1174.8 511.79 1031.31 531.59 925.56 556.72Q925.56 556.72 925.56 556.72" opacity="1.00"></path><path d="M873.55 603.4C851.35 626.74 908.92 646.8 1022.64 663.22 1203.57 684.51 1200.79 696.57 1021.08 683.03 898.9 669.3 818.99 648.31 799.2 621.42 841.26 596.33 927.38 570.19 1029.68 547.39 1123.21 535.79 1179.85 535.94 1187.23 552.98 1144.79 589.63 1061.42 646.77 955.38 723.65 842.93 812.41 745.04 908.61 674.26 1001.75 636.04 1077.87 631.84 1128.84 655.11 1145.09 701.12 1124.8 756.4 1069.63 810.67 988.8 861.62 902.63 898.06 826.4 917.48 780.11 922.35 779.75 910.32 828.5 884.94 920.92 848.37 1037.63 804.39 1154.32 757.16 1242.4 705.25 1279.17 654.65 1254.55 607.68 1173.54 559.71 1061.24 517.06 947.61 480.6 867.71 444.09 849.13 413.97 898.14 390.64 1002.2 367.3 1129.51 351.31 1237.71 342.36 1294.21 333.38 1284.33 331.24 1210.63 335.2 1096.14 338.17 972.12 345.54 872.41 355.12 820.83 360.01 827.84 362.55 886.98 358.68 978.53 343.63 1080.65 316.22 1164.04 273.04 1209.43 215.3 1208.73 141.67 1160.71 54.76 1076.76 -35.47 970.81 -125.48 862.99 -204.87 769.94 -261.53 701.69 -289.38 666.47 -281.73 663.37 -241.54 689.78 -172.77 735.7 -87.87 790.5 -9.38 849.72 47.99 900.35 66.14 936.67 34.46 959.15 -44.79 962.67 -159.12 949.11 -282.24 921.01 -387.37 880.88 -446.53 833.23 -443.85 778.2 -379.13 721.59 -270.11 666.51 -153.68 609.75 -64.61 557.38 -35.34 510.5 -80.04 463.94 -186.71 423.21 -322.36 388.42 -440.7 353.88 -500.63 324.88 -478.43 301.55 -382.27 278.22 -247.74 261.1 -123.24 250.18 -50.55 239.52 -52.31 235.47 -123.49 238.03 -239.91 240.9 -359.03 250.04 -442.18 264.47 -465.89 277.21 -421.47 292.38 -323.67 306.97 -197.99 314.19 -78.36 314.88 7.36 304.67 42.9 279.92 24.55 239.2 -36.16 180.75 -124.22 108.47 -213.3 23.11 -282.81 -69.48 -321.71 -157.67 -319.57 -235.63 -279.14 -292.62 -206.57 -320.1 -114.46 -314.01 -16.53 -273.31 79.64 -207.81 161.06 -125.98 222.6 -44.33 263.83 15.32 283.7 40.73 286.52 20.62 273.78 -45.58 252.76 -147.98 229 -267.2 200.6 -375.86 176.22 -450.19 158.28 -470.37 141.56 -431.96 132.9 -343.39 132.12 -228.37 133.18 -122.88 141.03 -56.05 154.74 -50.79 169.1 -111.91 188.13 -222.47 211.47 -349.78 234.8 -453.84 261.88 -500.49 292.98 -477.29 324.72 -392.78 361.65 -272.27 404.6 -150.97 449.38 -60.96 501.27 -25.19 560.32 -48.8 620.6 -123.72 686.42 -225.21 755.26 -324.82 819.45 -400.13 879.91 -429.87 930.96 -408.7 966.45 -341.59 983.78 -242.75 978.52 -132.28 952.93 -27.16 906.25 53.98 843.46 101.82 778.91 113.13 718.84 91.28 676.86 45.74 667 -16.8 693.99 -80.96 760.44 -136.34 857.5 -179.82 972.57 -202.24 1084.92 -202.92 1169.94 -184 1210.9 -146.96 1196.18 -97.04 1131.25 -35.92 1030.64 29.64 922.07 95.16 841.37 162.48 812.14 224.92 849.02 280.98 945.33 334.94 1075.59 382.02 1201.02 422.74 1281.2 461.54 1289.84 495.33 1221.76 524.98 1101.88 554.02 969.71 580.07 873.55 603.4Q873.55 603.4 873.55 603.4" opacity="0.35"></path><path d="M821.56 364.46C798.07 386 843.22 401.33 940.52 410.77 1061.67 420.36 1167.64 424.41 1228.07 423.68 1228.04 424 1166.89 420.96 1062.75 416.3 941.33 415.35 833.38 416.04 762.58 421.23 741.99 434.61 772.13 456.78 840.61 490.46 932.07 535.44 1021.39 593.33 1089.12 663.58 1124.6 740.17 1118.82 822.32 1074.9 903.94 999.61 975.34 906 1032.31 808.12 1067.14 714.75 1075.46 638.59 1055.17 584.83 1007.32 554.61 941.9 547.67 865.72 559.09 792.23 586.92 738.98 622.48 715.08 659.57 729.79 699.07 784.59 732.13 872.96 756.45 981.26 780.52 1131.36 774.49 1189.45 751.83 1069 732.4 961.85 710.57 865.14 687.94 805.05 664.6 800.2 641.83 852.45 620.29 950.14 598.76 1067.75 578.95 1171.4 560.34 1234.31 541.02 1242.53 521.5 1193.42 500.32 1100.88 476.43 986.81 448.37 878.3 414.22 798.7 374.97 763.05 327.43 776.06 270.67 830.39 209.03 914.16 139.57 1005.31 64.7 1084.24 -7.74 1138.33 -77.64 1154.89 -138.66 1132.6 -183.28 1075.53 -208.4 993.14 -209 898.53 -186.06 801.54 -139.48 715.91 -74.34 649.51 -4.68 605.62 62.03 586.62 111.89 589.37 130.37 611.94 112.17 646.62 54.26 686.68 -35.89 731.36 -146.07 771.38 -256.75 803.22 -344.44 829.27 -392.14 843.94 -387.34 847.76 -332.32 844.01 -238.39 831.33 -129.13 812.04 -37.14 787.78 13.71 760.03 5.42 730.95 -63.31 699.77 -175.62 669.46 -301.02 641.37 -402.59 612.81 -449.92 587.46 -426.43 565.92 -339.62 544.38 -217.08 527.16 -96.82 513.77 -13.37 499.89 10.32 488.87 -28.88 479.43 -118.97 467.89 -230.54 455.74 -331.54 440.92 -397.46 421.14 -409 395.57 -365.08 361.99 -276.22 320.85 -163.44 269.79 -51.45 208.37 39.85 141.17 93.31 66.82 103.8 -11.05 72.75 -84.3 11.88 -151.05 -63.16 -204.44 -141.18 -238.03 -203.96 -248.61 -241.99 -232.95 -252.64 -194.8 -232.85 -136.05 -187.51 -64.5 -121.03 4.67 -42.54 63.08 39.47 97.74 122.51 97.61 197.36 60.19 260.78 -13.09 314.14 -111.22 354.21 -219.93 382.78 -319.49 401.64 -389.62 412.79 -416.67 419.41 -393.19 420.8 -325.76 421.65 -227.54 424.26 -121.78 425.08 -37.54 429.83 5.23 439.64 -7.21 449.14 -74.36 464.42 -180.17 485.96 -297.78 507.5 -395.49 534.78 -445.59 567.24 -436.51 599.38 -372.17 635.97 -269.12 675.78 -153.67 713.78 -52.07 752.84 12.57 790.53 28.68 822.98 -5.26 850.09 -77.39 868.55 -168.62 877.31 -261.13 873.65 -331.96 855.65 -367.56 827.59 -363.07 787.07 -318.31 737.24 -242.64 688.41 -146.73 641.98 -46.56 606.32 44.28 591.8 117.58 601.58 164.76 640.46 184.68 706.73 178.09 796.39 150.7 899.84 110.12 1000.33 59.33 1085.18 9.24 1138.66 -34.15 1150.6 -71.2 1118.01 -94.77 1045.91 -104.39 953.13 -102.71 857.91 -88.48 784.83 -64.54 756.7 -32.41 782.26 5.15 860.34 45.17 973.49 88.91 1095.35 131.84 1193.76 172.15 1241.27 213.5 1223.91 250.79 1144.73 283.16 1028.72 315.68 908.36 342.92 821.56 364.46Q821.56 364.46 821.56 364.46" opacity="0.43"></path><path d="M769.53 175.39C745.28 195.13 779.12 213.91 860 232.09 968.22 250.78 1073.73 269.88 1150.59 290.43 1182.7 312.92 1161.46 338.63 1093.47 368.94 993.38 402.95 883.14 443.28 784.76 490.78 714.73 542.38 684.76 600.91 695.91 665.31 744.17 730.04 815.84 796.28 895.33 860.15 971.49 915.24 1027.97 960.06 1056.91 989.68 1056.41 1001.16 1025.65 992.47 970.6 962.72 896.46 917.34 813.3 858.08 729.81 792 649.5 731.73 580.87 683.13 526.73 655.99 486.64 658.58 461.96 692.53 450.17 757.06 450.28 844.1 458.17 943.42 470.13 1040.13 487.6 1117.43 504.4 1162.98 518.22 1167.17 533.14 1129.87 542.99 1056.41 547.03 960.68 549.62 826.04 524.74 780.05 497.96 898.15 478.21 1005.97 453.28 1104.02 423.28 1170.84 393.06 1194.08 357.43 1168.04 316.48 1099.77 275.2 1003.25 228.78 898.13 178.03 804.29 128.39 737.12 76.52 707.39 24.83 716.81 -21.33 762.31 -62.59 831.82 -95.11 911 -115.74 988.95 -122.54 1049.72 -112.88 1084.68 -89.17 1091 -49.92 1066.7 2.13 1016.6 57.37 945.91 113.41 863.99 161.67 779.8 190.85 698.04 196.96 627.44 174.15 571.7 121.89 531.38 43.43 508.03 -53.28 499.39 -153.32 504.54 -244.13 519.04 -310 538.83 -338.76 564.78 -324.88 590.34 -269.32 612.9 -185.41 635.76 -88.03 652.99 0.91 663.94 57.76 673.16 69.56 676.11 29.83 673.3 -54.64 669.12 -165.96 660.19 -278.08 647.19 -362.87 633.75 -398.71 617.04 -374.46 597.3 -296.77 577.55 -186.53 555.25 -72.86 530.22 16.69 504.77 60.93 475.81 51.96 442.75 -6.96 408.34 -98.27 368.81 -198.71 323.77 -287.71 277 -342.92 224.71 -353.81 167.63 -319.51 110.86 -246.66 51.92 -150.23 -6.43 -45.33 -58.65 49.3 -104.62 120.44 -140.21 160.77 -162.01 167.03 -168.05 143.46 -155.99 94.63 -128.51 32.81 -85.02 -31.05 -29.14 -91.87 29.16 -137.96 86.45 -164.99 133.83 -173.25 160.62 -160.55 162.95 -130.23 136.08 -84.6 80.57 -28.74 0.67 32.25 -94.87 98.34 -191.67 162.77 -277.28 222.8 -337.26 281.18 -361.17 332.78 -344.3 377.47 -288.28 418.99 -205.59 454.41 -109.9 484.77 -21 513.12 39.66 538.07 59.91 560.64 32.78 582.62 -37.92 603.31 -137.95 623.06 -245.77 642.8 -336.81 661.13 -389 677.6 -392.09 693.5 -347 706.44 -263.51 715.32 -160.1 722.2 -56.74 723.36 26.15 717.66 74.61 708.79 81.57 692.25 48.89 668.09 -13.92 642.28 -96.16 611.21 -179.39 577.55 -248.83 548.96 -295.75 524.57 -310.58 509.38 -292.62 509.49 -244.94 526.18 -174.36 562.68 -90.77 617.97 -1.38 691.17 82.51 777.86 153.78 867.61 209.42 954.08 245.22 1026.22 262 1073.11 260.63 1088.83 245.21 1069.06 220.55 1018.48 187.12 942.97 152.36 855.68 120.04 748.48 75.48 759.67 29.59 893.85 28.76 1005.42 34.27 1106.16 45.13 1172.71 59.88 1189.31 76.57 1150.88 95.36 1065.22 115.12 955.45 135.4 847.22 155.64 769.53 175.39Q769.53 175.39 769.53 175.39" opacity="0.30"></path><path d="M717.53 301.69C693 319.64 716.68 341.94 781.57 368.46 874.68 395.13 973.95 426.3 1058.72 461.88 1114.36 497.76 1128.58 538.07 1100.19 582.33 1034.99 626.16 945.05 672.81 846.38 720.82 753.12 765.8 680.17 809.18 636.2 848.37 625.05 879.94 645.18 903.16 689.8 915.27 825.12 905.32 943.23 842.58 989.32 739.31 953.14 645.12 848.35 592.17 717.39 625 647.88 677.4 583.25 749.9 525.79 836.04 473.73 924.9 430.59 1007.36 395.76 1071.98 367.11 1109.19 345.04 1113.45 327.75 1082.72 314.49 1023.03 303.52 941.8 293.2 852.33 279.78 743.51 244.29 734.75 219.09 846.15 201.14 944.12 180.17 1035.61 156.69 1103.97 133.63 1138.91 108.89 1133.33 83.6 1089.6 60.08 1015.6 37.79 924.01 18.49 829.84 -1.68 715.54 1.08 668.7 30.07 734.91 58.06 801.98 94.07 872.03 135.92 935.32 211.56 1019.81 264.8 1013.27 253.93 928.62 160.8 792.42 0.12 650.26 -172.57 534.23 -235.87 487.29 -273.4 450.96 -278.26 424.31 -250.3 406.17 -191.98 395.42 -111.88 389.89 -26.36 389.82 51.88 391.89 106.95 394.17 125.21 398.89 102.42 401.72 39.85 401.48 -51.83 401.98 -156.38 398.46 -253.05 390.37 -321.49 382.39 -346.99 369.56 -322.46 351.62 -253.58 333.67 -155.79 311.02 -50.75 284.04 40.45 257.18 99.55 226.25 116.73 191.9 89.77 158.29 26.92 122.21 -57.35 84.92 -148.73 50.08 -227.4 16.12 -279.69 -14.9 -298.86 -40.48 -280.65 -60.07 -229.57 -71.4 -152.9 -74.23 -62.7 -66.52 28.52 -47.25 177.79 13.44 234.6 104.06 202.87 193.21 107.83 230.83 8.28 194.83 -56.81 72.97 -75.65 -8.99 -81.05 -96.44 -74.39 -179.53 -57.71 -246.98 -32.09 -291.17 -0.35 -304.83 37.29 -286.4 77.29 -237.06 117.34 -163.42 159.67 -79.38 199.77 3.63 236.4 70.71 273.53 107.53 306.38 107.85 334.43 69.38 362.51 -2.5 385.68 -95.81 403.63 -193.77 427.73 -304.3 448.47 -284.94 446 -166.56 443.21 -70.16 436.36 19.64 426.6 89.47 419.11 130.33 410.99 137.78 404.45 113.74 403.82 62.27 408.53 -5.54 421.32 -78.39 444.14 -148.53 478.14 -203.63 524.65 -237.35 645.07 -232.82 796.16 -137.32 938.26 3.9 1017.04 154.22 1002.79 268.51 890.89 333.79 818.36 349.36 745.55 354.76 684.89 352.66 649.82 342.95 646.24 329.9 678.56 316.03 744.02 299.13 834.37 284.35 935.88 273.09 1066 257.87 1098.44 252.21 983.87 262.13 882.38 270.57 786.41 283.75 717.53 301.69Q717.53 301.69 717.53 301.69" opacity="0.14"></path><path d="M665.56 566.02C657.25 598.33 784.76 641.69 955.53 691.47 1067.2 736.7 1047.85 778.87 917.11 806.71 741.82 815.96 608.12 796.71 563.08 744.09 611.21 677.79 713.22 599.76 816.19 537.22 893.36 525.2 911.8 575.78 877.26 693.41 801.17 844.89 704.52 986.27 608.69 1057.77 510.3 1027.68 428.82 904.69 366.05 747.68 306.72 649.08 261.66 663.73 229.35 794.14 197.04 968.09 179.01 1078.36 177.41 1067.71 179.26 946.75 201.96 778.71 244.36 643.94 284.21 593.13 327.64 635.88 353.94 735.75 338.68 854.32 273.86 935.45 154.34 956.44 9.03 918.61 -131.28 833 -213.05 726.78 -201.65 609.75 -96.93 506.82 54.67 425.53 161.73 357.23 162.69 307.66 38.55 269.66 -144.68 236.84 -278.74 206.17 -270.43 173.86 -124.39 141.55 59.48 109.14 164.41 81.02 133.59 58.09 -1.11 48.88 -150.03 61.19 -237.33 86.47 -212.45 136.19 -96.65 203.43 64.1 259.87 205.38 299.1 289.18 294.6 306.4 231.28 269.24 111.85 208.41 -40.35 134.07 -173.87 79 -245.61 51.6 -218.5 40.2 -107.42 52.53 42.21 78.78 150.72 111.12 148.93 146.08 32.14 178.39 -141.78 210.7 -272.23 238.83 -280.36 267.42 -169.32 302.1 0.15 348.54 141.55 415.93 195.34 499.32 147.54 607.6 35.14 731.73 -82.69 842.35 -166.69 925.9 -178.98 951.03 -124.62 909.57 -19.75 806.6 104.65 679.48 220.74 597.32 323.17 601.41 395.63 712.4 442.38 885 470.53 1038.1 487.14 1081.39 502.85 988.93 514 811.6 533.72 665.56 566.02Q665.56 566.02 665.56 566.02" opacity="0.17"></path><path d="M613.56 597.21C598.23 625.93 695.09 645.51 845.06 653.88 976.77 659.15 1020.83 648.29 963.99 619.29 832.39 586.53 680.66 540.06 561.77 489.85 503.27 458.41 513.01 449.72 569.28 480.76 655.56 555.98 734.86 671.45 788.03 807.45 817.44 925.67 813 996.29 784.71 989.47 739.44 909 686.73 778.22 636.92 650.26 583.86 588.45 541.06 621.17 512.34 742.14 476.98 954.11 465.12 891.47 460.86 679.16 439.38 572.19 396.52 533.8 322.85 561.42 225.42 641.22 104.89 735.86 -19.02 814.73 -112.93 868.64 -156.72 879.6 -128.13 853.7 -39.14 798.71 86.83 726.67 197.37 651.81 233.16 571.06 172.76 499.82 29.97 442.28 -131.08 385.51 -233.76 342.36 -218.43 313.63 -92.88 284.91 73.7 271.98 195.26 274.59 218.11 277.96 141.09 296.95 12.53 327.93 -114.3 353.03 -178.35 377.78 -161.34 388.51 -72.98 370.16 55.59 317.98 185.03 226.44 295.44 109.93 363.97 -18.74 392.7 -128.46 387 -185.99 362.2 -173.37 334.59 -87.46 288.35 95.61 272.53 125.06 307.21 -89.78 335.93 -210.78 380.09 -237.71 439.03 -164.85 498.92 -25.81 573.7 121.32 658.44 222.85 735.83 250.73 807.92 205.87 857.89 117.56 873.42 11.46 846.11 -69.95 773.34 -107.54 681.54 -100.94 587.02 -51.02 528.56 24.67 541.45 119.14 631.26 212.91 779.15 295.44 928.76 374.21 1022.12 437.31 1010.36 486.2 899.88 531.99 739.11 568.5 613.56 597.21Q613.56 597.21 613.56 597.21" opacity="0.51"></path><path d="M561.89 351.34C541.02 376.47 608.96 387.34 731 385.71 905.41 380.43 846.02 358.57 663.29 379.31 545.98 421.39 466.2 489.83 430.42 584.59 436.59 690.91 471.84 800.57 518.54 891.24 575.21 940.4 621.19 935.63 650.41 871.81 673.28 770.38 679.03 654.29 671.12 562.92 660 534.41 640.71 579.99 615.58 690.02 590.45 826.95 560.67 936.28 524.4 982.03 484.92 954.5 433.46 862.77 367.04 739.14 294.27 614.44 206.9 521.51 111.51 475.42 26.08 478.88 -45.24 520.93 -84.35 582.26 -81.5 655.52 -31.52 717.02 59.62 757.67 204.92 783.56 209.04 723.92 17.79 671.07 -113.93 632.86 -186.97 599.67 -166.1 574.54 -60.03 549.41 85.59 533.53 211.26 524.35 273.74 512.4 256.03 501.49 175.64 485.18 59.78 457.46 -44.28 414.46 -105.76 350.66 -115.41 271.29 -69.78 173.71 12.94 67.51 119.63 -26.74 226.07 -98.6 317.38 -128.24 394.49 -108.33 448.31 -37.94 483.5 68.32 505.54 173.53 519.48 250.98 532.75 268.82 542.67 213.4 558.7 98.99 583.83 -37.91 608.96 -147.98 642 -188.49 679.47 -150.3 713.59 -49.24 745.36 81.14 766.88 201 775.23 283.26 762.8 310.57 724.41 287.58 671.84 223.08 601.48 143.21 527.72 69.82 477.93 7.99 462.09 -24.36 497.91 -27.71 585.55 -8.44 712.15 30.36 846.44 78.53 945.25 135.73 977.25 191.19 924.47 238.99 808.5 288.01 667.96 326.22 561.89 351.34Q561.89 351.34 561.89 351.34" opacity="0.56"></path><path d="M509.53 173.86C486.07 195.39 529.23 215.69 620.33 236.39 735.22 259.41 835.38 287.18 895.21 323.43 905.92 366.99 864.28 423.78 785.21 494.84 682.38 571.82 578 657.52 487.97 743.3 416.04 814.67 370.5 865.75 347.79 883.9 344.67 865.64 353.41 809.06 365.39 721.79 390.6 584.59 400.06 513.93 374.46 638.15 352.92 755.77 318.99 857.26 274.48 917.42 230.73 926.67 178.52 882.1 122.5 798.45 73.19 692.19 28.98 586.35 -1.09 498.77 -11.57 437.04 3.03 407.73 46.73 406.4 108.53 430.21 187.38 467.05 267.78 506.41 324.43 550.84 346.75 586.25 320.25 609.26 244.63 629.03 132.21 636.13 9 632.01 -90.39 626.15 -137.92 611.96 -114.46 590.42 -27.67 568.89 94.43 541.02 213.6 506.26 299.51 469.76 331.49 423.49 309.09 366.4 240.21 306.06 150.3 235.18 63.96 157.55 -7.85 84.99 -45.58 17.22 -47.61 -34.82 -18.69 -61.72 35.23 -57.97 101.83 -18.68 179.13 46.47 253.72 132.98 319.32 223.46 383.16 291.33 435.38 323.66 476.11 306.11 515.17 237.65 545.31 131.82 566.85 14.21 588.4 -83.5 600.32 -132.23 601.88 -122.92 601.78 -61.38 588.75 36.76 562.23 146.8 533.97 249.86 494.85 325.76 450.75 366.46 417.33 370.75 394.32 345.21 393.62 302.06 423.87 244.51 487.13 189.74 581.37 145.95 690.13 108.09 799.36 86.77 884.04 80.53 922.25 81.61 902.54 93.03 824.97 110.62 714.11 130.55 596.37 152.31 509.56 173.85Q509.53 173.86 509.53 173.86" opacity="0.47"></path><path d="M457.53 313.78C433 331.73 455.2 358.65 515.33 393.87 602.65 429.51 694.32 473.92 772.04 525.84 851.52 626.86 793.67 737.28 660.31 809.64 498.56 809.67 373.22 718.29 296.6 563.45 267.17 496.24 244.55 446.98 225.67 427.88 208.67 446.89 191.86 502.12 173.91 586.15 155.96 684.12 137.72 773.7 120.87 838.93 105.91 873.2 95.87 869.18 94.19 831.12 108.6 681.64 177.92 511.2 292.61 391.46 378.93 333.34 398.69 330.8 292.9 342.95 202.03 355.43 100.14 363.22 5.89 363.6 -61.15 364.62 -86.99 356.73 -62.46 338.78 6.41 320.83 103.86 293.67 207.45 258.81 298.91 224.57 361.28 184.13 387.42 140.54 330.17 66.18 198.08 12.69 88.9 23.77 26.96 96.46 43.04 228.81 98.55 351.99 135.52 376.89 172.2 370.7 204.57 329.49 238.14 257.34 264.83 164.12 282.78 66.15 304.9 -43.67 308.83 -25.78 300.96 84.31 307.66 265.47 347.6 394.92 456.6 441.94 612.83 416.64 782.99 362.24 866.55 323.43 853.57 302.61 801.41 290.86 716.88 289.07 620.22 287.7 526.41 295.83 457.53 313.78Q457.53 313.78 457.53 313.78" opacity="0.37"></path><path d="M405.82 574.69C390.05 603.41 480.21 649.5 611.52 698.16 734.61 732.58 786.46 742.53 766.62 706.09 694.02 636.71 597.97 529.53 512.85 423.15 425.29 376.92 363.98 413.1 335.26 534.1 306.54 689.83 313.14 797.44 350.92 817.94 386.28 757.56 437.51 642.45 472.47 521.02 454.66 404.96 372.35 321.74 228.22 269.13 75.85 230.39 -25.94 201.71 -10.17 172.99 115.66 144.27 281.38 118.24 403.16 107.2 444.33 110.05 406.87 148.45 334.95 226.86 243.32 310.65 180.11 395.31 155.67 434.63 143.68 393.08 157.06 273.83 185.78 118.1 214.5 -2.89 255.83 -27.42 317.59 39.84 391.81 167.27 499.84 304.92 629.11 411.94 738.67 486.01 806.59 520.89 786.47 536.24 685.74 537.34 531.66 545.97 405.82 574.69Q405.82 574.69 405.82 574.69" opacity="0.22"></path><path d="M353.53 590.34C330.07 611.88 369.21 618.18 446.6 606.18 546.95 588.81 631.5 546.7 682.74 483.15 708.34 392.27 637.12 357.13 599.81 482.15 578.27 599.77 568.78 696.92 562.93 750.91 547.46 762.71 518.06 729.4 462.12 670.34 382.66 592.5 275.26 515.44 159.12 453.23 65.94 391.29 18.07 347.55 41.53 326.02 128.32 304.48 249.56 307.18 364.38 331.79 453.63 356.67 500.32 400.11 510.68 449.72 490.89 480.55 461.25 491.01 440.14 463.44 414.69 393.67 409.64 287.81 431.18 170.21 452.71 72.49 498.79 26.53 561.56 35.83 619.99 90.03 683.26 173.93 731.29 262.53 749.17 354.31 725.34 430.03 651.89 484.73 552.87 534.06 440.36 568.8 353.56 590.33Q353.53 590.34 353.53 590.34" opacity="0.24"></path><path d="M301.56 338.63C286.23 367.35 364.12 334.58 449.73 280.49 541.06 266.37 574.34 309.18 545.63 430.14 516.91 585.9 431.62 683.76 302.65 699.19 179.4 667.9 78.23 611.53 93.56 582.81 219.09 554.09 383.04 558.46 494.56 552.11 565.68 499.05 597.8 377.9 626.52 222.14 655.23 101.18 675.12 81.65 641.64 133.41 567.75 225.14 427.09 309.92 301.56 338.63Q301.56 338.63 301.56 338.63" opacity="0.40"></path></g></svg>